<?xml version="1.0" encoding="UTF-8"?>
<!DOCTYPE svg PUBLIC "-//W3C//DTD SVG 1.1//EN" "http://www.w3.org/Graphics/SVG/1.1/DTD/svg11.dtd">
<svg xmlns="http://www.w3.org/2000/svg" xml:space="preserve" width="210mm" height="80mm" version="1.1" style="shape-rendering:geometricPrecision; text-rendering:geometricPrecision; image-rendering:optimizeQuality; fill-rule:evenodd; clip-rule:evenodd"
viewBox="0 7000 21000 8000"
 xmlns:xlink="http://www.w3.org/1999/xlink">
 <defs>
  <style type="text/css">
   <![CDATA[
    .fil4 {fill:#2B2A29;fill-rule:nonzero}
    .fil3 {fill:url(#id2)}
    .fil5 {fill:url(#id0)}
   ]]>
  </style>
  <linearGradient id="id0" gradientUnits="userSpaceOnUse" x1="9858.99" y1="11950" x2="12058.47" y2="11822.63">
   <stop offset="0" style="stop-opacity:1; stop-color:#906634"/>
   <stop offset="1" style="stop-opacity:1; stop-color:#DEBF6B"/>
  </linearGradient>
  <linearGradient id="id2" gradientUnits="userSpaceOnUse" xlink:href="#id0" x1="9643.98" y1="9614.96" x2="12589.42" y2="7275.93">
  </linearGradient>
 </defs>
 <g id="Layer_x0020_1">
  <!-- VIANNA INDUSTRIAL PARK Text (Top) -->
  <path class="fil3" d="M9189.24 7525.11l0 62.18c110.92,0 186.52,10.35 227.34,30.44 23.71,11.87 43.41,26.05 58.8,42.69l617.1 0 191.4 0c191.99,0 330.93,43.88 417.49,131.63 86.57,87.79 129.84,223.7 129.84,407.75 0,126.78 -23.77,229.78 -70.72,308.4 -46.91,78.64 -111.55,133.49 -193.81,163.97 -65.68,23.85 -158.19,38.36 -277.16,43.23l0 183.45 744.01 1050.79 763.09 0 0 -65.82c-64.61,-3.67 -121.91,-23.79 -170.66,-60.35 -32.31,-26.2 -87.17,-92.02 -163.94,-197.48l-580.83 -820.97c148.11,-36.56 263.29,-92.02 345.56,-166.37 128.6,-117.04 193.22,-265.15 193.22,-443.71 0,-146.89 -42.68,-274.88 -128.61,-383.99 -85.94,-109.69 -196.86,-184.67 -332.79,-224.89 -135.91,-40.84 -349.83,-60.95 -643,-60.95l-1126.33 0zm0 2362.36l0 62.17 608.32 0 0 -2000.59 -127.11 73.39 0 1800.09 -17.68 0 0 -1424.34 -127.11 73.4 0 1063.59c-0.23,126.88 -8.13,207.14 -24.35,240.15 -15.86,32.89 -43.91,60.33 -84.11,81.06 -39.62,20.74 -115.8,31.08 -227.96,31.08zm613.25 -1938.42l12.69 0 0 2000.59 391.25 0 0 -1234.24 -127.11 -73.36 0 1180.49 -17.67 0 0 -1880.61 -127.12 -73.37 0 1953.98 -17.62 0 0 -1953.98 12.69 0 0 -51.64 -127.11 -73.39 0 205.53z"/>
  <!-- VIANNA INDUSTRIAL PARK Text (Bottom) -->
  <path class="fil4" d="M7356.23 11397.59l-230.82 -325c86.23,-53.06 137.96,-141.94 137.96,-249.39 0,-181.74 -143.26,-301.13 -338.26,-301.13l-343.58 0 0 875.52 228.17 0 0 -271.94 94.18 0 197.66 271.94 254.69 0zm-546.53 -676.54l116.73 0c63.68,0 104.8,39.8 104.8,102.15 0,62.35 -41.12,103.47 -104.8,103.47l-116.73 0 0 -205.62zm636.73 676.54l228.17 0 0 -875.52 -228.17 0 0 875.52zm403.27 0l305.11 0c267.96,3.98 481.53,-181.74 477.55,-440.41 3.98,-262.66 -209.59,-437.76 -477.55,-435.11l-305.11 0 0 875.52zm228.17 -205.61l0 -462.97 75.61 0c144.59,0 245.41,79.6 245.41,228.17 0,144.59 -102.14,234.8 -245.41,234.8l-75.61 0zm684.49 205.61l228.17 0 0 -350.21 319.69 0 0 350.21 228.17 0 0 -875.52 -228.17 0 0 319.7 -319.69 0 0 -319.7 -228.17 0 0 875.52zm1365.01 0l0 -875.52 547.86 0 0 62.35 -478.88 0 0 309.08 372.76 0 0 62.35 -372.76 0 0 379.39 494.8 0 0 62.35 -563.78 0zm677.86 -172.45l51.74 -38.47c68.09,106.12 156.09,159.18 263.98,159.18 59.25,0 107.23,-15.03 143.93,-45.1 36.7,-30.07 55.05,-70.3 55.05,-120.71 -1.77,-44.22 -13.49,-77.38 -35.15,-99.49 -21.67,-22.11 -63.9,-49.09 -126.69,-80.92l-99.49 -47.76c-64.56,-29.18 -112.31,-59.69 -143.27,-91.53 -30.95,-31.84 -47.75,-76.94 -50.4,-135.31 0,-65.44 24.54,-117.84 73.62,-157.19 49.08,-39.35 109.44,-59.03 181.07,-59.03 54.83,0 105.02,12.38 150.56,37.14 45.55,24.76 82.91,58.81 112.1,102.14l-51.74 38.47c-53.95,-76.05 -124.25,-114.08 -210.92,-114.08 -50.41,0 -93.3,12.38 -128.67,37.15 -36.26,25.64 -54.39,62.78 -54.39,111.42 2.65,43.34 14.37,75.18 35.15,95.52 20.78,20.34 60.8,45.1 120.05,74.28l98.17 47.76c71.63,33.6 123.14,68.09 154.54,103.47 31.39,35.37 47.09,80.92 47.09,136.63 0,68.1 -25.87,123.81 -77.6,167.14 -51.74,43.34 -116.52,65.01 -194.34,65.01 -65.44,0 -125.58,-16.37 -180.41,-49.09 -54.83,-32.72 -99.49,-78.26 -133.98,-136.63zm1028.07 172.45l0 -813.17 -319.69 0 0 -62.35 709.7 0 0 62.35 -321.03 0 0 813.17 -68.98 0zm1078.48 0l-86.23 -208.27 -460.31 0 -86.22 208.27 -71.63 0 375.41 -888.78 27.85 0 374.09 888.78 -72.96 0zm-315.72 -765.41l-204.29 494.8 407.25 0 -202.96 -494.8zm692.45 765.41l0 -813.17 -319.69 0 0 -62.35 709.7 0 0 62.35 -321.03 0 0 813.17 -68.98 0zm551.84 0l0 -875.52 547.86 0 0 62.35 -478.88 0 0 309.08 372.76 0 0 62.35 -372.76 0 0 379.39 494.8 0 0 62.35 -563.78 0z"/>
  <!-- Decorative Line -->
  <rect class="fil5" x="9519.41" y="11836.19" width="1947.05" height="132.04"/>
 </g>
</svg>
