<?xml version="1.0" encoding="UTF-8"?>
<!DOCTYPE svg PUBLIC "-//W3C//DTD SVG 1.1//EN" "http://www.w3.org/Graphics/SVG/1.1/DTD/svg11.dtd">
<svg xmlns="http://www.w3.org/2000/svg" xml:space="preserve" width="210mm" height="120mm" version="1.1" style="shape-rendering:geometricPrecision; text-rendering:geometricPrecision; image-rendering:optimizeQuality; fill-rule:evenodd; clip-rule:evenodd"
viewBox="0 14000 21000 12000"
 xmlns:xlink="http://www.w3.org/1999/xlink">
 <defs>
  <style type="text/css">
   <![CDATA[
    .fil4 {fill:#2B2A29;fill-rule:nonzero}
    .fil2 {fill:#2B2A29;fill-rule:nonzero}
    .fil1 {fill:url(#id1)}
    .fil0 {fill:url(#id3);fill-rule:nonzero}
   ]]>
  </style>
  <linearGradient id="id1" gradientUnits="userSpaceOnUse" x1="8429.02" y1="18141.07" x2="11968.37" y2="15374.64">
   <stop offset="0" style="stop-opacity:1; stop-color:#005478"/>
   <stop offset="0.490196" style="stop-opacity:1; stop-color:#0A587A"/>
   <stop offset="1" style="stop-opacity:1; stop-color:#258EB2"/>
  </linearGradient>
  <linearGradient id="id3" gradientUnits="userSpaceOnUse" xlink:href="#id1" x1="3761.74" y1="21783.5" x2="15671.23" y2="21619.5">
  </linearGradient>
 </defs>
 <g id="Layer_x0020_1">
  <!-- RIDH ESTATE Text (Top) -->
  <path class="fil0" d="M5547.04 21375.65l0 765.51 -86.08 0 0 -765.51 86.08 0zm335.33 765.51l0 -796.88 596.8 624.34 0 -592.97 86.08 0 0 800.32 -596.8 -624.34 0 589.53 -86.08 0zm1017.25 0l0 -765.51 157.23 0c79.58,0 145.19,11.67 196.83,34.81 75.37,34.43 132.56,87.99 171.58,160.87 29.84,55.28 44.76,117.64 44.76,186.69 0,122.42 -44.76,220.55 -134.47,294.58 -38.25,31.75 -78.81,54.51 -122.04,68.09 -43.03,13.58 -95.64,20.47 -157.8,20.47l-156.09 0zm86.08 -79.19l74.6 0c90.47,0 163.54,-23.34 219.21,-70.2 69.62,-58.34 104.44,-136.19 104.44,-233.17 0,-65.04 -16.84,-123.38 -50.5,-174.64 -57.2,-86.08 -148.25,-129.12 -273.15,-129.12l-74.6 0 0 607.13zm863.65 -686.32l0 469.02c0,40.17 1.91,70.78 5.55,91.63 3.82,21.04 10.52,39.78 20.27,56.23 13.77,23.34 35.39,42.66 64.46,58.54 30.42,16.45 62.55,24.67 96.6,24.67 47.06,0 89.14,-14.54 126.05,-43.8 23.92,-19.13 40.17,-41.51 48.59,-67.14 8.42,-25.82 12.63,-65.8 12.63,-120.13l0 -469.02 86.07 0 0 492.55c0,41.51 -3.82,76.13 -11.48,103.87 -7.65,27.92 -20.46,53.56 -38.44,77.08 -26.21,33.86 -60.07,60.45 -101.76,79.39 -38.45,17.59 -79,26.39 -121.66,26.39 -61.02,0 -116.68,-17.4 -166.8,-52.03 -37.87,-26.58 -65.03,-58.15 -81.48,-94.68 -16.45,-36.54 -24.68,-83.21 -24.68,-140.02l0 -492.55 86.08 0zm1203.94 107.12l-67.14 44.18c-14.92,-23.91 -28.31,-40.93 -39.78,-51.26 -24.3,-22.38 -54.9,-33.47 -91.44,-33.47 -39.4,0 -70.77,12.62 -94.3,38.06 -21.61,23.34 -32.52,50.12 -32.52,80.34 0,33.28 15.88,60.83 47.63,82.44 14.16,9.38 26.78,16.84 37.88,22.19 10.9,5.55 42.65,19.51 94.87,42.47 62.36,27.54 106.16,57 131.03,87.99 28.12,34.43 42.08,75.55 42.08,123.56 0,70.97 -26.78,129.88 -80.15,176.75 -45.14,39.21 -99.46,58.91 -162.97,58.91 -60.44,0 -111.13,-17.21 -152.26,-51.84 -41.12,-34.43 -68.86,-83.01 -83.4,-145.75l82.83 -22.96c7.65,34.63 17.79,61.02 30.99,79.39 29.84,41.31 71.54,61.97 125.48,61.97 43.99,0 80.91,-15.49 110.75,-46.48 28.5,-29.27 42.65,-64.08 42.65,-104.44 0,-46.1 -21.04,-82.25 -63.31,-108.84 -19.32,-12.43 -64.65,-34.43 -135.62,-66.37 -56.24,-25.83 -95.83,-52.99 -118.78,-81.87 -23.91,-30.22 -35.77,-65.99 -35.77,-107.12 0,-64.84 25.44,-115.92 76.13,-153.22 40.36,-29.65 86.46,-44.37 137.91,-44.37 85.89,0 151.69,39.97 197.21,119.74zm507.29 -27.93l0 686.32 -86.07 0 0 -686.32 -184.78 0 0 -79.19 456.78 0 0 79.19 -185.93 0zm637.18 344.5l243.12 341.82 -104.25 0 -230.88 -335.13 -21.8 0 0 335.13 -86.08 0 0 -765.51 124.14 0c43.81,0 79.77,3.25 108.08,9.56 28.31,6.32 53.36,17.03 75.55,31.95 27.74,18.74 48.78,43.8 63.32,75.36 14.34,30.61 21.42,63.51 21.42,98.32 0,57.96 -17.6,105.97 -52.6,143.85 -35.01,37.87 -81.68,59.29 -140.02,64.65zm-113.81 -69.05l53.17 0c52.22,0 92.01,-10.33 119.36,-30.99 33.48,-25.44 50.12,-61.78 50.12,-109.03 0,-50.12 -18.55,-87.03 -55.66,-110.75 -26.78,-16.45 -65.42,-24.68 -115.92,-24.68l-51.07 0 0 275.45zm713.49 -354.64l0 765.51 -86.08 0 0 -765.51 86.08 0zm756.72 549.74l-326.7 0 -92.58 215.77 -92.97 0 352.53 -800.51 343.55 800.51 -93.73 0 -90.1 -215.77zm-33.66 -79.19l-127.78 -306.62 -130.64 306.62 258.42 0zm546.32 -470.55l0 686.32 210.03 0 0 79.19 -296.11 0 0 -765.51 86.08 0zm834.38 430.38l0 335.13 -86.08 0 0 -765.51 139.25 0c46.87,0 84.93,4.21 114.77,12.43 29.65,8.23 55.67,22 78.24,41.51 21.99,18.94 39.21,42.85 51.83,71.16 12.44,28.5 18.75,58.53 18.75,90.28 0,30.04 -5.55,58.92 -16.83,86.85 -11.29,27.73 -26.59,50.88 -45.91,69.24 -41.51,39.21 -101.38,58.91 -179.42,58.91l-74.6 0zm0 -78.04l69.43 0c53.94,0 94.88,-12.62 122.61,-37.68 27.36,-25.06 40.94,-58.53 40.94,-100.62 0,-43.42 -13.96,-76.89 -42.08,-100.61 -27.36,-22.76 -69.82,-34.24 -127.59,-34.24l-63.31 0 0 273.15zm945.13 197.4l-326.7 0 -92.58 215.77 -92.97 0 352.53 -800.51 343.55 800.51 -93.73 0 -90.1 -215.77zm-33.66 -79.19l-127.78 -306.62 -130.64 306.62 258.42 0zm660.13 -46.86l243.12 341.82 -104.25 0 -230.88 -335.13 -21.8 0 0 335.13 -86.08 0 0 -765.51 124.14 0c43.81,0 79.77,3.25 108.08,9.56 28.31,6.32 53.36,17.03 75.55,31.95 27.74,18.74 48.78,43.8 63.32,75.36 14.34,30.61 21.42,63.51 21.42,98.32 0,57.96 -17.6,105.97 -52.6,143.85 -35.01,37.87 -81.68,59.29 -140.02,64.65zm-113.81 -69.05l53.17 0c52.22,0 92.01,-10.33 119.36,-30.99 33.48,-25.44 50.12,-61.78 50.12,-109.03 0,-50.12 -18.55,-87.03 -55.66,-110.75 -26.78,-16.45 -65.42,-24.68 -115.92,-24.68l-51.07 0 0 275.45zm713.49 -25.63l326.13 -329.01 114.39 0 -358.65 356.93 370.32 408.58 -117.07 0 -313.32 -350.81 -21.8 21.23 0 329.58 -86.08 0 0 -765.51 86.08 0 0 329.01z"/>
  <!-- Decorative Building Element -->
  <path class="fil1" d="M9888.96 14788.98l-1308.06 0 1185.64 2053.59 726.39 1258.14 122.31 -211.83 -726.4 -1258.15 -52.28 -90.57 88.98 -104.6 37.99 65.81 726.38 1258.15 92.69 -160.54 -726.38 -1258.14 -368.74 -638.68 89.61 -103.49 353.8 612.81 726.39 1258.14 92.7 -160.53 -726.39 -1258.14 -74.5 -129.02 87.04 -107.97 62.14 107.63 726.39 1258.14 122.3 -211.83 -726.39 -1258.14 -531.61 -920.78zm2339.55 0l-1308.06 0 15.87 27.49 726.38 1258.14 654.04 -1132.82 88.22 -152.81 -176.45 0z"/>
  <!-- RIDH ESTATE Text (Bottom) -->
  <path class="fil2" d="M4928.37 18720.93l753.73 1590.28 702.27 -1590.28 159.27 0 -908.59 2046.54 -86.25 0 -974.75 -2046.54 354.32 0zm2044.87 0l335.2 0 0 1999.49 -335.2 0 0 -1999.49zm1811.59 -47.04l941.92 2046.53 -341.58 0 -305.81 -667.48 -857.13 0 -316.1 667.48 -167.6 0 962.99 -2046.53 83.31 0zm-503.79 1249.68l736.57 0 -363.14 -790.98 -373.43 790.98zm2679.02 -1249.68l941.92 2046.53 -341.58 0 -305.81 -667.48 -857.13 0 -316.1 667.48 -167.6 0 962.99 -2046.53 83.31 0zm-503.79 1249.68l736.57 0 -363.14 -790.98 -373.43 790.98zm1875.31 -1202.64l188.18 0 1313.39 1461.39 12.74 0 0 -1461.39 147.02 0 0 2046.54 -77.43 0 -1422.67 -1626.06 -11.27 0 0 1578.52 -149.96 0 0 -1999zm3138.21 -47.04l941.92 2046.53 -341.58 0 -305.81 -667.48 -857.13 0 -316.1 667.48 -167.6 0 962.99 -2046.53 83.31 0zm-503.79 1249.68l736.57 0 -363.14 -790.98 -373.43 790.98z"/>
 </g>
</svg>
